<svg xmlns="http://www.w3.org/2000/svg" xmlns:xlink="http://www.w3.org/1999/xlink" width="716pt" height="952" viewBox="0 0 716 714"><g id="graph0" class="graph" transform="scale(1 1) rotate(0) translate(4 710)"><title>CFG</title><polygon fill="#fff" stroke="transparent" points="-4 4 -4 -710 712 -710 712 4 -4 4"/><g id="clust1" class="cluster"><title>cluster_0</title><polygon fill="#d3d3d3" stroke="#d3d3d3" points="8 -331 8 -698 314 -698 314 -331 8 -331"/><text x="161" y="-682.8" fill="#000" font-family="Times,serif" font-size="14" text-anchor="middle">Region Address 0</text></g><g id="clust2" class="cluster"><title>cluster_5</title><polygon fill="#d3d3d3" stroke="#d3d3d3" points="322 -8 322 -479 700 -479 700 -8 322 -8"/><text x="511" y="-463.8" fill="#000" font-family="Times,serif" font-size="14" text-anchor="middle">Region Address 2</text></g><g id="node1" class="node"><title>C_0_control</title><polygon fill="none" stroke="#000" points="279.5 -667 208.5 -667 208.5 -631 279.5 -631 279.5 -667"/><text x="244" y="-645.3" fill="#000" font-family="Times,serif" font-size="14" text-anchor="middle">Control</text></g><g id="node2" class="node"><title>E_1</title><ellipse cx="120" cy="-524" fill="none" stroke="#000" rx="103.981" ry="18"/><text x="120" y="-520.3" fill="#000" font-family="Times,serif" font-size="14" text-anchor="middle">VariableAssignment</text></g><g id="edge1" class="edge"><title>C_0_control-&gt;E_1</title><path fill="none" stroke="#00f" stroke-dasharray="1 5" d="M225.9693,-630.8239C204.6344,-609.317 168.9881,-573.3832 144.9976,-549.1992"/><polygon fill="#00f" stroke="#00f" points="147.178 -546.428 137.651 -541.793 142.209 -551.358 147.178 -546.428"/><text x="199" y="-582.8" fill="#000" font-family="Times,serif" font-size="14" text-anchor="middle">e-0</text></g><g id="node5" class="node"><title>E_4</title><ellipse cx="274" cy="-524" fill="none" stroke="#000" rx="32.494" ry="18"/><text x="274" y="-520.3" fill="#000" font-family="Times,serif" font-size="14" text-anchor="middle">Goto</text></g><g id="edge4" class="edge"><title>C_0_control-&gt;E_4</title><path fill="none" stroke="#00f" stroke-dasharray="1 5" d="M248.3623,-630.8239C253.3169,-610.1798 261.4617,-576.2431 267.2404,-552.1648"/><polygon fill="#00f" stroke="#00f" points="270.702 -552.739 269.632 -542.198 263.895 -551.105 270.702 -552.739"/><text x="271" y="-582.8" fill="#000" font-family="Times,serif" font-size="14" text-anchor="middle">e-1</text></g><g id="node3" class="node"><title>V_2</title><ellipse cx="274" cy="-357" fill="none" stroke="#0f0" rx="31.695" ry="18"/><text x="274" y="-353.3" fill="#000" font-family="Times,serif" font-size="14" text-anchor="middle">var0</text></g><g id="edge2" class="edge"><title>E_1-&gt;V_2</title><path fill="none" stroke="#000" d="M136.4807,-506.1281C164.3525,-475.9035 220.8031,-414.6875 252.0141,-380.8418"/><polygon fill="#000" stroke="#000" points="254.8 -382.984 259.006 -373.26 249.654 -378.238 254.8 -382.984"/></g><g id="node8" class="node"><title>E_7</title><ellipse cx="473" cy="-284" fill="none" stroke="#000" rx="41.693" ry="18"/><text x="473" y="-280.3" fill="#000" font-family="Times,serif" font-size="14" text-anchor="middle">Binary</text></g><g id="edge7" class="edge"><title>V_2-&gt;E_7</title><path fill="none" stroke="#000" d="M294.8903,-343.1283C302.0122,-338.8182 310.1597,-334.3295 318,-331 362.5621,-312.0759 376.8573,-316.6544 423,-302 425.8962,-301.0802 428.8749,-300.0991 431.8668,-299.0877"/><polygon fill="#000" stroke="#000" points="433.079 -302.372 441.383 -295.792 430.789 -295.757 433.079 -302.372"/></g><g id="node12" class="node"><title>E_11</title><ellipse cx="372" cy="-284" fill="none" stroke="#000" rx="41.693" ry="18"/><text x="372" y="-280.3" fill="#000" font-family="Times,serif" font-size="14" text-anchor="middle">Binary</text></g><g id="edge13" class="edge"><title>V_2-&gt;E_11</title><path fill="none" stroke="#000" d="M293.3616,-342.5775C307.3872,-332.1299 326.6023,-317.8167 342.5273,-305.9542"/><polygon fill="#000" stroke="#000" points="345.053 -308.437 350.982 -299.656 340.872 -302.823 345.053 -308.437"/></g><g id="node4" class="node"><title>P_3</title><ellipse cx="120" cy="-649" fill="none" stroke="orange" rx="45.492" ry="18"/><text x="120" y="-645.3" fill="#000" font-family="Times,serif" font-size="14" text-anchor="middle">Integer</text></g><g id="edge3" class="edge"><title>P_3-&gt;E_1</title><path fill="none" stroke="#000" d="M120,-630.8239C120,-610.2723 120,-576.5472 120,-552.4893"/><polygon fill="#000" stroke="#000" points="123.5 -552.198 120 -542.198 116.5 -552.198 123.5 -552.198"/></g><g id="node6" class="node"><title>C_5_control</title><polygon fill="none" stroke="#000" points="603.5 -302 532.5 -302 532.5 -266 603.5 -266 603.5 -302"/><text x="568" y="-280.3" fill="#000" font-family="Times,serif" font-size="14" text-anchor="middle">Control</text></g><g id="edge16" class="edge"><title>E_4-&gt;C_5_control</title><path fill="none" stroke="#00f" stroke-dasharray="1 5" d="M306.8972,-523.0368C370.3707,-520.4615 506.2873,-511.2301 538,-479 581.8502,-434.4344 578.4205,-354.285 572.8404,-311.9518"/><polygon fill="#00f" stroke="#00f" points="576.303 -311.442 571.403 -302.048 569.376 -312.448 576.303 -311.442"/></g><g id="node7" class="node"><title>E_6</title><ellipse cx="583" cy="-159" fill="none" stroke="#000" rx="27" ry="18"/><text x="583" y="-155.3" fill="#000" font-family="Times,serif" font-size="14" text-anchor="middle">IF</text></g><g id="edge5" class="edge"><title>C_5_control-&gt;E_6</title><path fill="none" stroke="#00f" stroke-dasharray="1 5" d="M540.4229,-265.9961C523.5761,-252.5725 506.8746,-233.2972 516,-214 523.6523,-197.8178 538.6577,-184.7996 552.5312,-175.4987"/><polygon fill="#00f" stroke="#00f" points="554.792 -178.212 561.396 -169.928 551.067 -172.285 554.792 -178.212"/><text x="527" y="-217.8" fill="#000" font-family="Times,serif" font-size="14" text-anchor="middle">e-0</text></g><g id="node11" class="node"><title>E_10</title><ellipse cx="434" cy="-159" fill="none" stroke="#000" rx="103.981" ry="18"/><text x="434" y="-155.3" fill="#000" font-family="Times,serif" font-size="14" text-anchor="middle">VariableAssignment</text></g><g id="edge10" class="edge"><title>C_5_control-&gt;E_10</title><path fill="none" stroke="#00f" stroke-dasharray="1 5" d="M536.2306,-265.8183C520.5124,-256.0096 501.7902,-243.0467 487,-229 473.3999,-216.0835 460.6292,-199.4119 451.0326,-185.579"/><polygon fill="#00f" stroke="#00f" points="453.709 -183.289 445.208 -176.967 447.911 -187.211 453.709 -183.289"/><text x="498" y="-217.8" fill="#000" font-family="Times,serif" font-size="14" text-anchor="middle">e-1</text></g><g id="node14" class="node"><title>E_13</title><ellipse cx="660" cy="-159" fill="none" stroke="#000" rx="32.494" ry="18"/><text x="660" y="-155.3" fill="#000" font-family="Times,serif" font-size="14" text-anchor="middle">Goto</text></g><g id="edge15" class="edge"><title>C_5_control-&gt;E_13</title><path fill="none" stroke="#00f" stroke-dasharray="1 5" d="M598.7631,-265.8775C612.48,-256.4248 627.808,-243.7493 638,-229 646.6563,-216.473 652.0254,-200.3832 655.2897,-186.7888"/><polygon fill="#00f" stroke="#00f" points="658.718 -187.492 657.395 -176.98 651.874 -186.023 658.718 -187.492"/><text x="657" y="-217.8" fill="#000" font-family="Times,serif" font-size="14" text-anchor="middle">e-2</text></g><g id="node10" class="node"><title>E_9</title><ellipse cx="583" cy="-34" fill="none" stroke="#000" rx="42.793" ry="18"/><text x="583" y="-30.3" fill="#000" font-family="Times,serif" font-size="14" text-anchor="middle">Return</text></g><g id="edge9" class="edge"><title>E_6-&gt;E_9</title><path fill="none" stroke="#00f" stroke-dasharray="1 5" d="M583,-140.8239C583,-120.2723 583,-86.5472 583,-62.4893"/><polygon fill="#00f" stroke="#00f" points="586.5 -62.198 583 -52.198 579.5 -62.198 586.5 -62.198"/><text x="594" y="-92.8" fill="#000" font-family="Times,serif" font-size="14" text-anchor="middle">e-0</text></g><g id="edge6" class="edge"><title>E_7-&gt;E_6</title><path fill="none" stroke="#000" d="M449.3084,-268.904C429.9723,-254.6758 407.9636,-232.7932 422,-214 456.6704,-167.5802 493.1032,-198.2597 547,-177 548.8526,-176.2692 550.7389,-175.4781 552.6284,-174.6491"/><polygon fill="#000" stroke="#000" points="554.381 -177.694 561.962 -170.292 551.42 -171.351 554.381 -177.694"/></g><g id="node9" class="node"><title>P_8</title><ellipse cx="484" cy="-430" fill="none" stroke="orange" rx="45.492" ry="18"/><text x="484" y="-426.3" fill="#000" font-family="Times,serif" font-size="14" text-anchor="middle">Integer</text></g><g id="edge8" class="edge"><title>P_8-&gt;E_7</title><path fill="none" stroke="#000" d="M482.6291,-411.8042C480.7517,-386.8868 477.3619,-341.8938 475.1463,-312.4877"/><polygon fill="#000" stroke="#000" points="478.63 -312.134 474.388 -302.425 471.649 -312.66 478.63 -312.134"/></g><g id="edge11" class="edge"><title>E_10-&gt;V_2</title><path fill="none" stroke="#000" d="M411.0245,-176.8032C386.5141,-196.6326 347.628,-230.585 321,-266 306.0764,-285.8483 293.448,-311.1229 285.0518,-329.9964"/><polygon fill="#000" stroke="#000" points="281.82 -328.653 281.057 -339.22 288.243 -331.435 281.82 -328.653"/></g><g id="edge12" class="edge"><title>E_11-&gt;E_10</title><path fill="none" stroke="#000" d="M378.9359,-266.1797C384.6727,-251.8678 393.2685,-231.3644 402,-214 406.7147,-204.6238 412.337,-194.6324 417.5439,-185.7737"/><polygon fill="#000" stroke="#000" points="420.646 -187.406 422.764 -177.025 414.635 -183.819 420.646 -187.406"/></g><g id="node13" class="node"><title>P_12</title><ellipse cx="375" cy="-430" fill="none" stroke="orange" rx="45.492" ry="18"/><text x="375" y="-426.3" fill="#000" font-family="Times,serif" font-size="14" text-anchor="middle">Integer</text></g><g id="edge14" class="edge"><title>P_12-&gt;E_11</title><path fill="none" stroke="#000" d="M374.6261,-411.8042C374.1141,-386.8868 373.1896,-341.8938 372.5854,-312.4877"/><polygon fill="#000" stroke="#000" points="376.083 -312.351 372.379 -302.425 369.085 -312.495 376.083 -312.351"/></g><g id="edge17" class="edge"><title>E_13-&gt;C_5_control</title><path fill="none" stroke="#00f" stroke-dasharray="1 5" d="M635.1772,-170.9965C606.9775,-184.876 564.2859,-206.7514 560,-214 552.6081,-226.5016 553.794,-242.4647 557.1909,-255.9891"/><polygon fill="#00f" stroke="#00f" points="553.894 -257.181 560.114 -265.758 560.6 -255.174 553.894 -257.181"/><text x="597" y="-217.8" fill="#000" font-family="Times,serif" font-size="14" text-anchor="middle">back-edge</text></g></g></svg>