<svg xmlns="http://www.w3.org/2000/svg" xmlns:xlink="http://www.w3.org/1999/xlink" width="1196" height="1272" viewBox="0 0 897 954"><g id="graph0" class="graph" transform="scale(1 1) rotate(0) translate(4 950)"><title>CFG</title><polygon fill="#fff" stroke="transparent" points="-4 4 -4 -950 893 -950 893 4 -4 4"/><g id="clust1" class="cluster"><title>cluster_0</title><polygon fill="#d3d3d3" stroke="#d3d3d3" points="342 -571 342 -938 648 -938 648 -571 342 -571"/><text x="495" y="-922.8" fill="#000" font-family="Times,serif" font-size="14" text-anchor="middle">Region Address 0</text></g><g id="clust2" class="cluster"><title>cluster_5</title><polygon fill="#d3d3d3" stroke="#d3d3d3" points="656 -248 656 -719 845 -719 845 -248 656 -248"/><text x="750.5" y="-703.8" fill="#000" font-family="Times,serif" font-size="14" text-anchor="middle">Region Address 2</text></g><g id="clust3" class="cluster"><title>cluster_12</title><polygon fill="#d3d3d3" stroke="#d3d3d3" points="8 -81 8 -719 334 -719 334 -81 8 -81"/><text x="171" y="-703.8" fill="#000" font-family="Times,serif" font-size="14" text-anchor="middle">Region Address 8</text></g><g id="clust4" class="cluster"><title>cluster_10</title><polygon fill="#d3d3d3" stroke="#d3d3d3" points="729 -8 729 -229 881 -229 881 -8 729 -8"/><text x="805" y="-213.8" fill="#000" font-family="Times,serif" font-size="14" text-anchor="middle">Region Address 14</text></g><g id="node1" class="node"><title>C_0_control</title><polygon fill="none" stroke="#000" points="613.5 -907 542.5 -907 542.5 -871 613.5 -871 613.5 -907"/><text x="578" y="-885.3" fill="#000" font-family="Times,serif" font-size="14" text-anchor="middle">Control</text></g><g id="node2" class="node"><title>E_1</title><ellipse cx="454" cy="-764" fill="none" stroke="#000" rx="103.981" ry="18"/><text x="454" y="-760.3" fill="#000" font-family="Times,serif" font-size="14" text-anchor="middle">VariableAssignment</text></g><g id="edge1" class="edge"><title>C_0_control-&gt;E_1</title><path fill="none" stroke="#00f" stroke-dasharray="1 5" d="M559.9693,-870.8239C538.6344,-849.317 502.9881,-813.3832 478.9976,-789.1992"/><polygon fill="#00f" stroke="#00f" points="481.178 -786.428 471.651 -781.793 476.209 -791.358 481.178 -786.428"/><text x="533" y="-822.8" fill="#000" font-family="Times,serif" font-size="14" text-anchor="middle">e-0</text></g><g id="node5" class="node"><title>E_4</title><ellipse cx="608" cy="-764" fill="none" stroke="#000" rx="32.494" ry="18"/><text x="608" y="-760.3" fill="#000" font-family="Times,serif" font-size="14" text-anchor="middle">Goto</text></g><g id="edge4" class="edge"><title>C_0_control-&gt;E_4</title><path fill="none" stroke="#00f" stroke-dasharray="1 5" d="M582.3623,-870.8239C587.3169,-850.1798 595.4617,-816.2431 601.2404,-792.1648"/><polygon fill="#00f" stroke="#00f" points="604.702 -792.739 603.633 -782.198 597.895 -791.105 604.702 -792.739"/><text x="605" y="-822.8" fill="#000" font-family="Times,serif" font-size="14" text-anchor="middle">e-1</text></g><g id="node3" class="node"><title>V_2</title><ellipse cx="388" cy="-597" fill="none" stroke="#0f0" rx="31.695" ry="18"/><text x="388" y="-593.3" fill="#000" font-family="Times,serif" font-size="14" text-anchor="middle">var0</text></g><g id="edge2" class="edge"><title>E_1-&gt;V_2</title><path fill="none" stroke="#000" d="M446.8112,-745.8102C435.1953,-716.4185 412.2359,-658.3243 398.6953,-624.0623"/><polygon fill="#000" stroke="#000" points="401.911 -622.677 394.981 -614.663 395.401 -625.25 401.911 -622.677"/></g><g id="node8" class="node"><title>E_7</title><ellipse cx="706" cy="-524" fill="none" stroke="#000" rx="41.693" ry="18"/><text x="706" y="-520.3" fill="#000" font-family="Times,serif" font-size="14" text-anchor="middle">Binary</text></g><g id="edge7" class="edge"><title>V_2-&gt;E_7</title><path fill="none" stroke="#000" d="M417.6311,-590.1979C473.0678,-577.4719 592.8491,-549.9749 659.2677,-534.7279"/><polygon fill="#000" stroke="#000" points="660.095 -538.129 669.059 -532.48 658.529 -531.307 660.095 -538.129"/></g><g id="node15" class="node"><title>E_15</title><ellipse cx="148" cy="-524" fill="none" stroke="#000" rx="41.693" ry="18"/><text x="148" y="-520.3" fill="#000" font-family="Times,serif" font-size="14" text-anchor="middle">Binary</text></g><g id="edge14" class="edge"><title>V_2-&gt;E_15</title><path fill="none" stroke="#000" d="M365.6235,-583.9204C357.1705,-579.3686 347.3364,-574.525 338,-571 312.2333,-561.2716 242.9139,-545.018 195.5308,-534.4038"/><polygon fill="#000" stroke="#000" points="196.003 -530.923 185.481 -532.163 194.48 -537.755 196.003 -530.923"/></g><g id="node4" class="node"><title>P_3</title><ellipse cx="454" cy="-889" fill="none" stroke="orange" rx="45.492" ry="18"/><text x="454" y="-885.3" fill="#000" font-family="Times,serif" font-size="14" text-anchor="middle">Integer</text></g><g id="edge3" class="edge"><title>P_3-&gt;E_1</title><path fill="none" stroke="#000" d="M454,-870.8239C454,-850.2723 454,-816.5472 454,-792.4893"/><polygon fill="#000" stroke="#000" points="457.5 -792.198 454 -782.198 450.5 -792.198 457.5 -792.198"/></g><g id="node6" class="node"><title>C_5_control</title><polygon fill="none" stroke="#000" points="836.5 -542 765.5 -542 765.5 -506 836.5 -506 836.5 -542"/><text x="801" y="-520.3" fill="#000" font-family="Times,serif" font-size="14" text-anchor="middle">Control</text></g><g id="edge21" class="edge"><title>E_4-&gt;C_5_control</title><path fill="none" stroke="#00f" stroke-dasharray="1 5" d="M639.4205,-758.8341C679.7229,-751.5647 746.414,-737.1519 763,-719 805.2703,-672.7388 806.6816,-593.9233 803.9388,-552.0624"/><polygon fill="#00f" stroke="#00f" points="807.422 -551.713 803.152 -542.016 800.444 -552.259 807.422 -551.713"/></g><g id="node7" class="node"><title>E_6</title><ellipse cx="794" cy="-399" fill="none" stroke="#000" rx="27" ry="18"/><text x="794" y="-395.3" fill="#000" font-family="Times,serif" font-size="14" text-anchor="middle">IF</text></g><g id="edge5" class="edge"><title>C_5_control-&gt;E_6</title><path fill="none" stroke="#00f" stroke-dasharray="1 5" d="M799.9821,-505.8239C798.8313,-485.2723 796.9426,-451.5472 795.5954,-427.4893"/><polygon fill="#00f" stroke="#00f" points="799.073 -426.987 795.019 -417.198 792.084 -427.378 799.073 -426.987"/><text x="808" y="-457.8" fill="#000" font-family="Times,serif" font-size="14" text-anchor="middle">e-0</text></g><g id="node11" class="node"><title>E_11</title><ellipse cx="710" cy="-399" fill="none" stroke="#000" rx="32.494" ry="18"/><text x="710" y="-395.3" fill="#000" font-family="Times,serif" font-size="14" text-anchor="middle">Goto</text></g><g id="edge10" class="edge"><title>C_5_control-&gt;E_11</title><path fill="none" stroke="#00f" stroke-dasharray="1 5" d="M787.7678,-505.8239C772.1385,-484.355 746.0436,-448.5104 728.4386,-424.3278"/><polygon fill="#00f" stroke="#00f" points="731.087 -422.019 722.372 -415.994 725.428 -426.139 731.087 -422.019"/><text x="771" y="-457.8" fill="#000" font-family="Times,serif" font-size="14" text-anchor="middle">e-1</text></g><g id="node10" class="node"><title>E_9</title><ellipse cx="794" cy="-274" fill="none" stroke="#000" rx="32.494" ry="18"/><text x="794" y="-270.3" fill="#000" font-family="Times,serif" font-size="14" text-anchor="middle">Goto</text></g><g id="edge9" class="edge"><title>E_6-&gt;E_9</title><path fill="none" stroke="#00f" stroke-dasharray="1 5" d="M794,-380.8239C794,-360.2723 794,-326.5472 794,-302.4893"/><polygon fill="#00f" stroke="#00f" points="797.5 -302.198 794 -292.198 790.5 -302.198 797.5 -302.198"/><text x="805" y="-332.8" fill="#000" font-family="Times,serif" font-size="14" text-anchor="middle">e-0</text></g><g id="edge6" class="edge"><title>E_7-&gt;E_6</title><path fill="none" stroke="#000" d="M706.449,-505.717C707.5896,-490.7621 711.0363,-469.6099 721,-454 731.3224,-437.8281 748.1777,-424.6636 763.0926,-415.2731"/><polygon fill="#000" stroke="#000" points="765.263 -418.054 772.053 -409.921 761.673 -412.044 765.263 -418.054"/></g><g id="node9" class="node"><title>P_8</title><ellipse cx="709" cy="-670" fill="none" stroke="orange" rx="45.492" ry="18"/><text x="709" y="-666.3" fill="#000" font-family="Times,serif" font-size="14" text-anchor="middle">Integer</text></g><g id="edge8" class="edge"><title>P_8-&gt;E_7</title><path fill="none" stroke="#000" d="M708.6261,-651.8042C708.1141,-626.8868 707.1896,-581.8938 706.5854,-552.4877"/><polygon fill="#000" stroke="#000" points="710.083 -552.351 706.379 -542.425 703.085 -552.495 710.083 -552.351"/></g><g id="node19" class="node"><title>C_10_control</title><polygon fill="none" stroke="#000" points="829.5 -198 758.5 -198 758.5 -162 829.5 -162 829.5 -198"/><text x="794" y="-176.3" fill="#000" font-family="Times,serif" font-size="14" text-anchor="middle">Control</text></g><g id="edge22" class="edge"><title>E_9-&gt;C_10_control</title><path fill="none" stroke="#00f" stroke-dasharray="1 5" d="M794,-255.8759C794,-242.3516 794,-223.6192 794,-208.1514"/><polygon fill="#00f" stroke="#00f" points="797.5 -208.069 794 -198.069 790.5 -208.069 797.5 -208.069"/></g><g id="node12" class="node"><title>C_12_control</title><polygon fill="none" stroke="#000" points="311.5 -542 240.5 -542 240.5 -506 311.5 -506 311.5 -542"/><text x="276" y="-520.3" fill="#000" font-family="Times,serif" font-size="14" text-anchor="middle">Control</text></g><g id="edge23" class="edge"><title>E_11-&gt;C_12_control</title><path fill="none" stroke="#00f" stroke-dasharray="1 5" d="M677.7875,-401.7716C622.1207,-407.2497 504.8692,-421.8335 411,-454 376.483,-465.8281 339.8888,-485.2867 313.5203,-500.6897"/><polygon fill="#00f" stroke="#00f" points="311.46 -497.842 304.64 -505.95 315.028 -503.865 311.46 -497.842"/></g><g id="node13" class="node"><title>E_13</title><ellipse cx="120" cy="-399" fill="none" stroke="#000" rx="103.981" ry="18"/><text x="120" y="-395.3" fill="#000" font-family="Times,serif" font-size="14" text-anchor="middle">VariableAssignment</text></g><g id="edge11" class="edge"><title>C_12_control-&gt;E_13</title><path fill="none" stroke="#00f" stroke-dasharray="1 5" d="M253.3163,-505.8239C226.127,-484.0376 180.4624,-447.4474 150.2802,-423.2629"/><polygon fill="#00f" stroke="#00f" points="152.198 -420.315 142.206 -416.793 147.821 -425.778 152.198 -420.315"/><text x="217" y="-457.8" fill="#000" font-family="Times,serif" font-size="14" text-anchor="middle">e-0</text></g><g id="node17" class="node"><title>E_17</title><ellipse cx="222" cy="-107" fill="none" stroke="#000" rx="103.981" ry="18"/><text x="222" y="-103.3" fill="#000" font-family="Times,serif" font-size="14" text-anchor="middle">VariableAssignment</text></g><g id="edge16" class="edge"><title>C_12_control-&gt;E_17</title><path fill="none" stroke="#00f" stroke-dasharray="1 5" d="M260.4663,-505.8822C251.9071,-494.0516 243,-477.8195 243,-461.5 243,-461.5 243,-461.5 243,-180 243,-164.6571 238.6626,-148.1824 233.9303,-134.7736"/><polygon fill="#00f" stroke="#00f" points="237.115 -133.299 230.3 -125.187 230.568 -135.778 237.115 -133.299"/><text x="254" y="-332.8" fill="#000" font-family="Times,serif" font-size="14" text-anchor="middle">e-1</text></g><g id="node18" class="node"><title>E_18</title><ellipse cx="294" cy="-399" fill="none" stroke="#000" rx="32.494" ry="18"/><text x="294" y="-395.3" fill="#000" font-family="Times,serif" font-size="14" text-anchor="middle">Goto</text></g><g id="edge19" class="edge"><title>C_12_control-&gt;E_18</title><path fill="none" stroke="#00f" stroke-dasharray="1 5" d="M278.6174,-505.8239C281.5901,-485.1798 286.477,-451.2431 289.9443,-427.1648"/><polygon fill="#00f" stroke="#00f" points="293.418 -427.595 291.38 -417.198 286.49 -426.597 293.418 -427.595"/><text x="297" y="-457.8" fill="#000" font-family="Times,serif" font-size="14" text-anchor="middle">e-2</text></g><g id="node14" class="node"><title>V_14</title><ellipse cx="174" cy="-274" fill="none" stroke="#0f0" rx="31.695" ry="18"/><text x="174" y="-270.3" fill="#000" font-family="Times,serif" font-size="14" text-anchor="middle">var1</text></g><g id="edge12" class="edge"><title>E_13-&gt;V_14</title><path fill="none" stroke="#000" d="M127.8521,-380.8239C136.9017,-359.8756 151.8643,-325.2401 162.2898,-301.107"/><polygon fill="#000" stroke="#000" points="165.56 -302.361 166.313 -291.793 159.135 -299.585 165.56 -302.361"/></g><g id="edge18" class="edge"><title>V_14-&gt;E_17</title><path fill="none" stroke="#000" d="M179.1368,-256.1281C187.4874,-227.0749 204.0687,-169.3861 213.9817,-134.8971"/><polygon fill="#000" stroke="#000" points="217.429 -135.574 216.827 -124.996 210.701 -133.64 217.429 -135.574"/></g><g id="edge13" class="edge"><title>E_15-&gt;E_13</title><path fill="none" stroke="#000" d="M143.9286,-505.8239C139.3043,-485.1798 131.7024,-451.2431 126.3089,-427.1648"/><polygon fill="#000" stroke="#000" points="129.678 -426.191 124.076 -417.198 122.847 -427.721 129.678 -426.191"/></g><g id="node16" class="node"><title>P_16</title><ellipse cx="148" cy="-670" fill="none" stroke="orange" rx="45.492" ry="18"/><text x="148" y="-666.3" fill="#000" font-family="Times,serif" font-size="14" text-anchor="middle">Integer</text></g><g id="edge15" class="edge"><title>P_16-&gt;E_15</title><path fill="none" stroke="#000" d="M148,-651.8042C148,-626.8868 148,-581.8938 148,-552.4877"/><polygon fill="#000" stroke="#000" points="151.5 -552.425 148 -542.425 144.5 -552.425 151.5 -552.425"/></g><g id="edge17" class="edge"><title>E_17-&gt;V_2</title><path fill="none" stroke="#000" d="M282.0355,-121.6998C329.2131,-135.0619 387,-156.2719 387,-180 387,-524 387,-524 387,-524 387,-538.8018 387.2081,-555.2902 387.4344,-568.8463"/><polygon fill="#000" stroke="#000" points="383.938 -569.065 387.616 -579.001 390.937 -568.94 383.938 -569.065"/></g><g id="edge24" class="edge"><title>E_18-&gt;C_5_control</title><path fill="none" stroke="#00f" stroke-dasharray="1 5" d="M325.0722,-404.3866C398.7957,-417.5453 589.9259,-453.88 755.3042,-505.6722"/><polygon fill="#00f" stroke="#00f" points="754.566 -509.109 765.156 -508.786 756.675 -502.435 754.566 -509.109"/><text x="661" y="-457.8" fill="#000" font-family="Times,serif" font-size="14" text-anchor="middle">back-edge</text></g><g id="node20" class="node"><title>E_19</title><ellipse cx="794" cy="-34" fill="none" stroke="#000" rx="42.793" ry="18"/><text x="794" y="-30.3" fill="#000" font-family="Times,serif" font-size="14" text-anchor="middle">Return</text></g><g id="edge20" class="edge"><title>C_10_control-&gt;E_19</title><path fill="none" stroke="#00f" stroke-dasharray="1 5" d="M794,-161.8042C794,-136.8868 794,-91.8938 794,-62.4877"/><polygon fill="#00f" stroke="#00f" points="797.5 -62.425 794 -52.425 790.5 -62.425 797.5 -62.425"/><text x="805" y="-103.3" fill="#000" font-family="Times,serif" font-size="14" text-anchor="middle">e-0</text></g></g></svg>